<?xml version="1.0" encoding="UTF-8"?> <svg xmlns="http://www.w3.org/2000/svg" xmlns:xlink="http://www.w3.org/1999/xlink" version="1.1" id="Layer_1" x="0px" y="0px" viewBox="0 0 160.1 58.1" xml:space="preserve"> <g> <g> <polygon fill="#0074BC" points="5.7,54.4 2,54.4 2,32.1 18.1,32.1 18.1,35.8 5.7,35.8 "></polygon> <polygon fill="#0074BC" points="137.7,54.4 134,54.4 134,37.8 121.1,54.4 117.2,54.4 117.2,32.1 120.8,32.1 120.8,48.8 133.7,32.1 137.7,32.1 "></polygon> <path fill="#0074BC" d="M57.9,54.4H45.1V32.1h11.5c3.4,0,6.1,2.8,6.1,6.1c0,1.3-0.4,2.6-1.2,3.6c1.9,1.2,3.1,3.3,3.1,5.7 C64.7,51.3,61.6,54.4,57.9,54.4z M48.8,50.7h9.1c1.7,0,3.2-1.4,3.2-3.2c0-1.7-1.4-3.2-3.2-3.2h-9.1V50.7z M48.8,40.7h7.8 c1.4,0,2.5-1.1,2.5-2.5s-1.1-2.5-2.5-2.5h-7.8V40.7z"></path> <path fill="#0074BC" d="M99.5,54.4h-3.7V32.1h11.5c4,0,7.3,3.3,7.3,7.3s-3.3,7.3-7.3,7.3h-7.8V54.4z M99.5,43h7.8 c2,0,3.6-1.6,3.6-3.6c0-2-1.6-3.6-3.6-3.6h-7.8V43z"></path> <path fill="#0074BC" d="M48.8,23.5h-3.7V1.3h11.5c4,0,7.3,3.3,7.3,7.3s-3.3,7.3-7.3,7.3h-7.8V23.5z M48.8,12.1h7.8 c2,0,3.6-1.6,3.6-3.6s-1.6-3.6-3.6-3.6h-7.8V12.1z"></path> <g> <g> <polygon fill="#0074BC" points="41.1,1.3 21.9,1.3 21.9,4.9 29.7,4.9 29.7,23.5 33.3,23.5 33.3,4.9 41.1,4.9 "></polygon> </g> </g> <path fill="#0074BC" d="M12.1,24.2c-6.5,0-11.8-5.3-11.8-11.8S5.6,0.6,12.1,0.6c2.9,0,5.6,1,7.8,2.9l-2.4,2.8 c-1.5-1.3-3.4-2-5.4-2C7.6,4.2,4,7.9,4,12.4s3.7,8.2,8.2,8.2c2,0,3.9-0.7,5.4-2l2.4,2.8C17.7,23.2,15,24.2,12.1,24.2z"></path> <path fill="#0074BC" d="M116.8,23.5l2.5-5.7h11.2l2.5,5.7h4l-9.6-22.3h-5l-9.6,22.3H116.8z M124.8,4.9h0.1l4,9.2h-8L124.8,4.9z"></path> <polygon fill="#0074BC" points="106.3,1.3 106.3,10.7 94,10.7 94,1.3 90.3,1.3 90.3,23.5 94,23.5 94,14.4 106.3,14.4 106.3,23.5 110,23.5 110,1.3 "></polygon> <path fill="#0074BC" d="M67.7,56.7l1.5-8.1C68.4,47,68,45.2,68,43.4c0-6.6,5.4-12,12-12s12,5.4,12,12s-5.4,12-12,12 c-1.4,0-2.7-0.2-4-0.7L67.7,56.7z M80,35c-4.6,0-8.4,3.8-8.4,8.4c0,1.4,0.4,2.8,1,4.1L73,48l-0.7,3.9l4-1l0.5,0.2 c1,0.4,2.1,0.6,3.2,0.6c4.6,0,8.4-3.8,8.4-8.4S84.7,35,80,35z"></path> <path fill="#0074BC" d="M17.3,56.7l1.5-8.1c-0.8-1.6-1.2-3.4-1.2-5.2c0-6.6,5.4-12,12-12s12,5.4,12,12s-5.4,12-12,12 c-1.4,0-2.7-0.2-4-0.7L17.3,56.7z M29.7,35c-4.6,0-8.4,3.8-8.4,8.4c0,1.4,0.4,2.8,1,4.1l0.3,0.6l-0.7,3.9l4-1l0.5,0.2 c1,0.4,2.1,0.6,3.2,0.6c4.6,0,8.4-3.8,8.4-8.4S34.3,35,29.7,35z"></path> <path fill="#0074BC" d="M67.4,23.5l2.5-5.7h11.2l2.5,5.7h4L77.9,1.3h-5l-9.6,22.3H67.4z M75.4,4.9h0.1l4,9.2h-8L75.4,4.9z"></path> <g> <rect x="147.3" y="10.1" fill="#0074BC" width="9.5" height="3.2"></rect> <g> <rect x="148" y="-0.9" transform="matrix(0.4062 0.9138 -0.9138 0.4062 91.6228 -134.8417)" fill="#0074BC" width="3.2" height="8"></rect> <g> <rect x="145.5" y="18.8" transform="matrix(0.9137 0.4063 -0.4063 0.9137 21.1741 -59.0071)" fill="#0074BC" width="8" height="3.2"></rect> </g> </g> </g> <g> <g> <polygon fill="#0074BC" points="160.1,32.1 140.9,32.1 140.9,35.8 148.7,35.8 148.7,54.4 152.3,54.4 152.3,35.8 160.1,35.8 "></polygon> </g> </g> </g> </g> </svg> 