<?xml version="1.0" encoding="UTF-8"?> <svg xmlns="http://www.w3.org/2000/svg" xmlns:xlink="http://www.w3.org/1999/xlink" version="1.1" id="Layer_1" x="0px" y="0px" viewBox="0 0 198.4 118.8" xml:space="preserve"> <g> <g> <rect x="0" y="0" fill="#0074BC" width="198.4" height="84.4"></rect> <g> <polygon fill="#FFFFFF" points="25.4,68.3 21.7,68.3 21.7,46 37.8,46 37.8,49.7 25.4,49.7 "></polygon> <polygon fill="#FFFFFF" points="157.4,68.3 153.7,68.3 153.7,51.7 140.8,68.3 136.9,68.3 136.9,46 140.6,46 140.6,62.6 153.4,46 157.4,46 "></polygon> <path fill="#FFFFFF" d="M77.6,68.3H64.8V46h11.5c3.4,0,6.1,2.8,6.1,6.1c0,1.3-0.4,2.6-1.2,3.6c1.9,1.2,3.1,3.3,3.1,5.7 C84.4,65.2,81.3,68.3,77.6,68.3z M68.5,64.6h9.1c1.7,0,3.2-1.4,3.2-3.2c0-1.7-1.4-3.2-3.2-3.2h-9.1V64.6z M68.5,54.6h7.8 c1.4,0,2.5-1.1,2.5-2.5s-1.1-2.5-2.5-2.5h-7.8V54.6z"></path> <path fill="#FFFFFF" d="M119.2,68.3h-3.7V46H127c4,0,7.3,3.3,7.3,7.3s-3.3,7.3-7.3,7.3h-7.8V68.3z M119.2,56.8h7.8 c2,0,3.6-1.6,3.6-3.6s-1.6-3.6-3.6-3.6h-7.8V56.8z"></path> <path fill="#FFFFFF" d="M68.5,37.4h-3.7V15.1h11.5c4,0,7.3,3.3,7.3,7.3s-3.3,7.3-7.3,7.3h-7.8V37.4z M68.5,26h7.8 c2,0,3.6-1.6,3.6-3.6s-1.6-3.6-3.6-3.6h-7.8V26z"></path> <g> <g> <polygon fill="#FFFFFF" points="60.9,15.1 41.6,15.1 41.6,18.8 49.4,18.8 49.4,37.4 53.1,37.4 53.1,18.8 60.9,18.8 "></polygon> </g> </g> <path fill="#FFFFFF" d="M31.5,38.1c-6.5,0-11.8-5.3-11.8-11.8S25,14.5,31.5,14.5c2.9,0,5.6,1,7.8,2.9l-2.4,2.8 c-1.5-1.3-3.4-2-5.4-2c-4.5,0-8.2,3.7-8.2,8.2s3.7,8.2,8.2,8.2c2,0,3.9-0.7,5.4-2l2.4,2.8C37.2,37.1,34.4,38.1,31.5,38.1z"></path> <path fill="#FFFFFF" d="M136.5,37.4l2.5-5.7h11.2l2.5,5.7h4l-9.6-22.3h-5l-9.6,22.3H136.5z M144.5,18.8h0.1l4,9.2h-8L144.5,18.8z "></path> <polygon fill="#FFFFFF" points="126,15.1 126,24.6 113.7,24.6 113.7,15.1 110,15.1 110,37.4 113.7,37.4 113.7,28.3 126,28.3 126,37.4 129.7,37.4 129.7,15.1 "></polygon> <path fill="#FFFFFF" d="M87.4,70.6l1.5-8.1c-0.8-1.6-1.2-3.4-1.2-5.2c0-6.6,5.4-12,12-12s12,5.4,12,12s-5.4,12-12,12 c-1.4,0-2.7-0.2-4-0.7L87.4,70.6z M99.7,48.9c-4.6,0-8.4,3.8-8.4,8.4c0,1.4,0.4,2.8,1,4.1l0.3,0.6L92,65.8l4-1l0.5,0.2 c1,0.4,2.1,0.6,3.2,0.6c4.6,0,8.4-3.8,8.4-8.4S104.4,48.9,99.7,48.9z"></path> <path fill="#FFFFFF" d="M37.1,70.6l1.5-8.1c-0.8-1.6-1.2-3.4-1.2-5.2c0-6.6,5.4-12,12-12s12,5.4,12,12s-5.4,12-12,12 c-1.4,0-2.7-0.2-4-0.7L37.1,70.6z M49.4,48.9c-4.6,0-8.4,3.8-8.4,8.4c0,1.4,0.4,2.8,1,4.1l0.3,0.6l-0.7,3.9l4-1l0.5,0.2 c1,0.4,2.1,0.6,3.2,0.6c4.6,0,8.4-3.8,8.4-8.4S54,48.9,49.4,48.9z"></path> <path fill="#FFFFFF" d="M87.1,37.4l2.5-5.7h11.2l2.5,5.7h4l-9.6-22.3h-5l-9.6,22.3H87.1z M95.1,18.8h0.1l4,9.2h-8L95.1,18.8z"></path> <g> <rect x="167" y="24" fill="#FFFFFF" width="9.5" height="3.2"></rect> <g> <rect x="167.7" y="12.9" transform="matrix(0.4062 0.9138 -0.9138 0.4062 116.0203 -144.6009)" fill="#FFFFFF" width="3.2" height="8"></rect> <g> <rect x="165.2" y="32.7" transform="matrix(0.9137 0.4063 -0.4063 0.9137 28.5181 -65.8157)" fill="#FFFFFF" width="8" height="3.2"></rect> </g> </g> </g> <g> <g> <polygon fill="#FFFFFF" points="179.9,46 160.6,46 160.6,49.7 168.4,49.7 168.4,68.3 172.1,68.3 172.1,49.7 179.9,49.7 "></polygon> </g> </g> </g> </g> <g> <rect x="0" y="83.9" fill="#ED1C24" width="198.4" height="34.9"></rect> <g> <path fill="#FFFFFF" d="M18.9,94h3.2v9.7c2.3-3.2,4.5-6.5,6.9-9.7h3.1v14.5h-3.2v-9.6l-6.9,9.6h-3.1V94z"></path> <path fill="#FFFFFF" d="M42.3,105.6h1.6c1.2-2.4,1.6-5.8,1.6-9.8V94h11.2v11.6h2.1l-0.4,6.3h-2.8v-3.5H45.4l-0.3,3.5h-2.8V105.6z M53.4,105.6v-8.8h-4.8v1.9c0,2.6-0.5,5.1-1.3,6.9H53.4z"></path> <path fill="#FFFFFF" d="M60.4,101.2c0-4.1,2.9-7.5,7.1-7.5c4.6,0,6.9,3.6,6.9,7.8c0,0.2,0,0.8-0.1,0.9H63.7 c0.4,2.4,2,3.7,4.2,3.7c1.6,0,2.8-0.6,3.9-1.7l1.9,1.7c-1.4,1.6-3.3,2.7-5.9,2.7C63.7,108.8,60.4,105.8,60.4,101.2z M71.1,100.2 c-0.2-2.1-1.5-3.8-3.7-3.8c-2,0-3.5,1.6-3.8,3.8H71.1z"></path> <path fill="#FFFFFF" d="M77.5,94h3.2v9.7c2.3-3.2,4.5-6.5,6.9-9.7h3.1v14.5h-3.2v-9.6l-6.9,9.6h-3.1V94z M79.8,88.5l2-0.4 c0.4,1.2,1,1.9,2.3,1.9c1.2,0,1.9-0.7,2.3-1.9l2,0.4c-0.4,2.3-1.9,3.8-4.3,3.8S80.2,90.9,79.8,88.5z"></path> <path fill="#FFFFFF" d="M93.8,101.3L93.8,101.3c0-4.2,3.2-7.6,7.5-7.6c2.7,0,4.4,1,5.8,2.5l-2.1,2.2c-1-1.1-2.1-1.8-3.8-1.8 c-2.4,0-4.2,2.1-4.2,4.6v0.1c0,2.6,1.8,4.7,4.3,4.7c1.6,0,2.7-0.7,3.8-1.8l2,2c-1.4,1.6-3.1,2.7-5.9,2.7 C97,108.8,93.8,105.4,93.8,101.3z"></path> <path fill="#FFFFFF" d="M113,96.9h-4.7V94H121v2.9h-4.7v11.6H113V96.9z"></path> <path fill="#FFFFFF" d="M123.3,94h7.4c2.9,0,4.8,1.4,4.8,3.6c0,1.8-1.1,2.8-2.3,3.3c1.8,0.5,3,1.6,3,3.6c0,2.4-2.1,3.9-5.3,3.9 h-7.5V94z M130,100c1.4,0,2.2-0.7,2.2-1.8c0-0.9-0.6-1.6-2.1-1.6h-3.5v3.4H130z M130.3,105.9c1.6,0,2.5-0.7,2.5-1.9 c0-1-0.8-1.8-2.6-1.8h-3.6v3.6H130.3z"></path> <path fill="#FFFFFF" d="M137.9,112.1l1.1-2.5c0.6,0.3,1.3,0.5,1.9,0.5c0.9,0,1.5-0.4,2.1-1.7L137,94h3.5l4.1,10.7l3.8-10.7h3.5 l-5.8,14.9c-1.2,3-2.4,4.1-4.8,4.1C140,113,138.9,112.6,137.9,112.1z"></path> <path fill="#FFFFFF" d="M152.8,101.2c0-4.1,2.9-7.5,7.1-7.5c4.6,0,6.9,3.6,6.9,7.8c0,0.2,0,0.8-0.1,0.9h-10.6 c0.4,2.4,2,3.7,4.2,3.7c1.6,0,2.8-0.6,3.9-1.7l1.9,1.7c-1.4,1.6-3.3,2.7-5.9,2.7C156.1,108.8,152.8,105.8,152.8,101.2z M163.6,100.2c-0.2-2.1-1.5-3.8-3.7-3.8c-2,0-3.5,1.6-3.8,3.8H163.6z"></path> <path fill="#FFFFFF" d="M172.5,96.9h-4.7V94h12.7v2.9h-4.7v11.6h-3.3V96.9z"></path> </g> </g> </g> </svg> 