<?xml version="1.0" encoding="UTF-8"?> <svg xmlns="http://www.w3.org/2000/svg" xmlns:xlink="http://www.w3.org/1999/xlink" version="1.1" id="Layer_1" x="0px" y="0px" viewBox="0 0 160.1 92.7" xml:space="preserve"> <g> <g> <rect x="2" y="65.4" fill="#ED1C24" width="155.6" height="27.4"></rect> <g> <path fill="#FFFFFF" d="M16.9,73.3h2.5v7.6c1.8-2.5,3.6-5.1,5.4-7.6h2.4v11.3h-2.5v-7.6l-5.4,7.6h-2.4V73.3z"></path> <path fill="#FFFFFF" d="M35.3,82.4h1.2c0.9-1.9,1.3-4.5,1.3-7.7v-1.4h8.8v9.1h1.6l-0.3,5h-2.2v-2.7h-7.9l-0.3,2.7h-2.2V82.4z M43.9,82.4v-6.9h-3.7V77c0,2.1-0.4,4-1.1,5.4H43.9z"></path> <path fill="#FFFFFF" d="M49.5,79c0-3.2,2.3-5.9,5.5-5.9c3.6,0,5.4,2.8,5.4,6.1c0,0.2,0,0.6,0,0.7h-8.3c0.3,1.8,1.6,2.9,3.3,2.9 c1.3,0,2.2-0.5,3.1-1.4l1.5,1.4c-1.1,1.3-2.6,2.1-4.6,2.1C52,84.9,49.5,82.5,49.5,79z M57.9,78.2c-0.2-1.7-1.2-3-2.9-3 c-1.6,0-2.7,1.2-2.9,3H57.9z"></path> <path fill="#FFFFFF" d="M62.9,73.3h2.5v7.6c1.8-2.5,3.6-5.1,5.4-7.6h2.4v11.3h-2.5v-7.6l-5.4,7.6h-2.4V73.3z M64.7,69l1.6-0.3 c0.3,0.9,0.8,1.5,1.8,1.5s1.5-0.6,1.8-1.5l1.6,0.3c-0.3,1.8-1.5,3-3.4,3S65,70.8,64.7,69z"></path> <path fill="#FFFFFF" d="M75.7,79L75.7,79c0-3.3,2.5-6,5.9-6c2.1,0,3.5,0.8,4.5,2l-1.6,1.7c-0.8-0.8-1.6-1.4-2.9-1.4 c-1.9,0-3.3,1.6-3.3,3.6v0c0,2,1.4,3.7,3.4,3.7c1.2,0,2.1-0.6,2.9-1.4l1.6,1.5c-1.1,1.2-2.4,2.1-4.6,2.1 C78.1,84.9,75.7,82.3,75.7,79z"></path> <path fill="#FFFFFF" d="M90.7,75.5H87v-2.2h9.9v2.2h-3.7v9.1h-2.6V75.5z"></path> <path fill="#FFFFFF" d="M98.8,73.3h5.8c2.3,0,3.7,1.1,3.7,2.8c0,1.4-0.9,2.2-1.8,2.6c1.4,0.4,2.3,1.2,2.3,2.8 c0,1.9-1.6,3.1-4.2,3.1h-5.9V73.3z M104,78c1.1,0,1.7-0.6,1.7-1.4c0-0.7-0.5-1.3-1.7-1.3h-2.7V78H104z M104.3,82.6 c1.3,0,1.9-0.6,1.9-1.5c0-0.8-0.7-1.4-2.1-1.4h-2.8v2.8H104.3z"></path> <path fill="#FFFFFF" d="M110.2,87.5l0.9-1.9c0.5,0.3,1,0.4,1.5,0.4c0.7,0,1.2-0.3,1.6-1.3l-4.7-11.3h2.8l3.2,8.4l2.9-8.4h2.7 L116.6,85c-0.9,2.3-1.9,3.2-3.7,3.2C111.8,88.2,111,87.9,110.2,87.5z"></path> <path fill="#FFFFFF" d="M121.9,79c0-3.2,2.3-5.9,5.5-5.9c3.6,0,5.4,2.8,5.4,6.1c0,0.2,0,0.6,0,0.7h-8.3c0.3,1.8,1.6,2.9,3.3,2.9 c1.3,0,2.2-0.5,3.1-1.4l1.5,1.4c-1.1,1.3-2.6,2.1-4.6,2.1C124.4,84.9,121.9,82.5,121.9,79z M130.3,78.2c-0.2-1.7-1.2-3-2.9-3 c-1.6,0-2.7,1.2-2.9,3H130.3z"></path> <path fill="#FFFFFF" d="M137.3,75.5h-3.7v-2.2h9.9v2.2h-3.7v9.1h-2.6V75.5z"></path> </g> </g> <g> <polygon fill="#0074BC" points="5.7,54.4 2,54.4 2,32.1 18.1,32.1 18.1,35.8 5.7,35.8 "></polygon> <polygon fill="#0074BC" points="137.7,54.4 134,54.4 134,37.8 121.1,54.4 117.2,54.4 117.2,32.1 120.8,32.1 120.8,48.8 133.7,32.1 137.7,32.1 "></polygon> <path fill="#0074BC" d="M57.9,54.4H45.1V32.1h11.5c3.4,0,6.1,2.8,6.1,6.1c0,1.3-0.4,2.6-1.2,3.6c1.9,1.2,3.1,3.3,3.1,5.7 C64.7,51.3,61.6,54.4,57.9,54.4z M48.8,50.7h9.1c1.7,0,3.2-1.4,3.2-3.2c0-1.7-1.4-3.2-3.2-3.2h-9.1V50.7z M48.8,40.7h7.8 c1.4,0,2.5-1.1,2.5-2.5s-1.1-2.5-2.5-2.5h-7.8V40.7z"></path> <path fill="#0074BC" d="M99.5,54.4h-3.7V32.1h11.5c4,0,7.3,3.3,7.3,7.3s-3.3,7.3-7.3,7.3h-7.8V54.4z M99.5,43h7.8 c2,0,3.6-1.6,3.6-3.6c0-2-1.6-3.6-3.6-3.6h-7.8V43z"></path> <path fill="#0074BC" d="M48.8,23.5h-3.7V1.3h11.5c4,0,7.3,3.3,7.3,7.3s-3.3,7.3-7.3,7.3h-7.8V23.5z M48.8,12.1h7.8 c2,0,3.6-1.6,3.6-3.6s-1.6-3.6-3.6-3.6h-7.8V12.1z"></path> <g> <g> <polygon fill="#0074BC" points="41.1,1.3 21.9,1.3 21.9,4.9 29.7,4.9 29.7,23.5 33.3,23.5 33.3,4.9 41.1,4.9 "></polygon> </g> </g> <path fill="#0074BC" d="M12.1,24.2c-6.5,0-11.8-5.3-11.8-11.8S5.6,0.6,12.1,0.6c2.9,0,5.6,1,7.8,2.9l-2.4,2.8 c-1.5-1.3-3.4-2-5.4-2C7.6,4.2,4,7.9,4,12.4s3.7,8.2,8.2,8.2c2,0,3.9-0.7,5.4-2l2.4,2.8C17.7,23.2,15,24.2,12.1,24.2z"></path> <path fill="#0074BC" d="M116.8,23.5l2.5-5.7h11.2l2.5,5.7h4l-9.6-22.3h-5l-9.6,22.3H116.8z M124.8,4.9h0.1l4,9.2h-8L124.8,4.9z"></path> <polygon fill="#0074BC" points="106.3,1.3 106.3,10.7 94,10.7 94,1.3 90.3,1.3 90.3,23.5 94,23.5 94,14.4 106.3,14.4 106.3,23.5 110,23.5 110,1.3 "></polygon> <path fill="#0074BC" d="M67.7,56.7l1.5-8.1C68.4,47,68,45.2,68,43.4c0-6.6,5.4-12,12-12s12,5.4,12,12s-5.4,12-12,12 c-1.4,0-2.7-0.2-4-0.7L67.7,56.7z M80,35c-4.6,0-8.4,3.8-8.4,8.4c0,1.4,0.4,2.8,1,4.1L73,48l-0.7,3.9l4-1l0.5,0.2 c1,0.4,2.1,0.6,3.2,0.6c4.6,0,8.4-3.8,8.4-8.4S84.7,35,80,35z"></path> <path fill="#0074BC" d="M17.3,56.7l1.5-8.1c-0.8-1.6-1.2-3.4-1.2-5.2c0-6.6,5.4-12,12-12s12,5.4,12,12s-5.4,12-12,12 c-1.4,0-2.7-0.2-4-0.7L17.3,56.7z M29.7,35c-4.6,0-8.4,3.8-8.4,8.4c0,1.4,0.4,2.8,1,4.1l0.3,0.6l-0.7,3.9l4-1l0.5,0.2 c1,0.4,2.1,0.6,3.2,0.6c4.6,0,8.4-3.8,8.4-8.4S34.3,35,29.7,35z"></path> <path fill="#0074BC" d="M67.4,23.5l2.5-5.7h11.2l2.5,5.7h4L77.9,1.3h-5l-9.6,22.3H67.4z M75.4,4.9h0.1l4,9.2h-8L75.4,4.9z"></path> <g> <rect x="147.3" y="10.1" fill="#0074BC" width="9.5" height="3.2"></rect> <g> <rect x="148" y="-0.9" transform="matrix(0.4062 0.9138 -0.9138 0.4062 91.6228 -134.8417)" fill="#0074BC" width="3.2" height="8"></rect> <g> <rect x="145.5" y="18.8" transform="matrix(0.9137 0.4063 -0.4063 0.9137 21.1741 -59.0071)" fill="#0074BC" width="8" height="3.2"></rect> </g> </g> </g> <g> <g> <polygon fill="#0074BC" points="160.1,32.1 140.9,32.1 140.9,35.8 148.7,35.8 148.7,54.4 152.3,54.4 152.3,35.8 160.1,35.8 "></polygon> </g> </g> </g> </g> </svg> 