<?xml version="1.0" encoding="UTF-8"?> <svg xmlns="http://www.w3.org/2000/svg" xmlns:xlink="http://www.w3.org/1999/xlink" version="1.1" id="Layer_1" x="0px" y="0px" viewBox="0 0 198.4 84.4" xml:space="preserve"> <g> <rect x="0" y="0" fill="#0074BC" width="198.4" height="84.4"></rect> <g> <polygon fill="#FFFFFF" points="25.4,68.3 21.7,68.3 21.7,46 37.8,46 37.8,49.7 25.4,49.7 "></polygon> <polygon fill="#FFFFFF" points="157.4,68.3 153.7,68.3 153.7,51.7 140.8,68.3 136.9,68.3 136.9,46 140.6,46 140.6,62.6 153.4,46 157.4,46 "></polygon> <path fill="#FFFFFF" d="M77.6,68.3H64.8V46h11.5c3.4,0,6.1,2.8,6.1,6.1c0,1.3-0.4,2.6-1.2,3.6c1.9,1.2,3.1,3.3,3.1,5.7 C84.4,65.2,81.3,68.3,77.6,68.3z M68.5,64.6h9.1c1.7,0,3.2-1.4,3.2-3.2c0-1.7-1.4-3.2-3.2-3.2h-9.1V64.6z M68.5,54.6h7.8 c1.4,0,2.5-1.1,2.5-2.5s-1.1-2.5-2.5-2.5h-7.8V54.6z"></path> <path fill="#FFFFFF" d="M119.2,68.3h-3.7V46H127c4,0,7.3,3.3,7.3,7.3s-3.3,7.3-7.3,7.3h-7.8V68.3z M119.2,56.8h7.8 c2,0,3.6-1.6,3.6-3.6s-1.6-3.6-3.6-3.6h-7.8V56.8z"></path> <path fill="#FFFFFF" d="M68.5,37.4h-3.7V15.1h11.5c4,0,7.3,3.3,7.3,7.3s-3.3,7.3-7.3,7.3h-7.8V37.4z M68.5,26h7.8 c2,0,3.6-1.6,3.6-3.6s-1.6-3.6-3.6-3.6h-7.8V26z"></path> <g> <g> <polygon fill="#FFFFFF" points="60.9,15.1 41.6,15.1 41.6,18.8 49.4,18.8 49.4,37.4 53.1,37.4 53.1,18.8 60.9,18.8 "></polygon> </g> </g> <path fill="#FFFFFF" d="M31.5,38.1c-6.5,0-11.8-5.3-11.8-11.8S25,14.5,31.5,14.5c2.9,0,5.6,1,7.8,2.9l-2.4,2.8 c-1.5-1.3-3.4-2-5.4-2c-4.5,0-8.2,3.7-8.2,8.2s3.7,8.2,8.2,8.2c2,0,3.9-0.7,5.4-2l2.4,2.8C37.2,37.1,34.4,38.1,31.5,38.1z"></path> <path fill="#FFFFFF" d="M136.5,37.4l2.5-5.7h11.2l2.5,5.7h4l-9.6-22.3h-5l-9.6,22.3H136.5z M144.5,18.8h0.1l4,9.2h-8L144.5,18.8z"></path> <polygon fill="#FFFFFF" points="126,15.1 126,24.6 113.7,24.6 113.7,15.1 110,15.1 110,37.4 113.7,37.4 113.7,28.3 126,28.3 126,37.4 129.7,37.4 129.7,15.1 "></polygon> <path fill="#FFFFFF" d="M87.4,70.6l1.5-8.1c-0.8-1.6-1.2-3.4-1.2-5.2c0-6.6,5.4-12,12-12s12,5.4,12,12s-5.4,12-12,12 c-1.4,0-2.7-0.2-4-0.7L87.4,70.6z M99.7,48.9c-4.6,0-8.4,3.8-8.4,8.4c0,1.4,0.4,2.8,1,4.1l0.3,0.6L92,65.8l4-1l0.5,0.2 c1,0.4,2.1,0.6,3.2,0.6c4.6,0,8.4-3.8,8.4-8.4S104.4,48.9,99.7,48.9z"></path> <path fill="#FFFFFF" d="M37.1,70.6l1.5-8.1c-0.8-1.6-1.2-3.4-1.2-5.2c0-6.6,5.4-12,12-12s12,5.4,12,12s-5.4,12-12,12 c-1.4,0-2.7-0.2-4-0.7L37.1,70.6z M49.4,48.9c-4.6,0-8.4,3.8-8.4,8.4c0,1.4,0.4,2.8,1,4.1l0.3,0.6l-0.7,3.9l4-1l0.5,0.2 c1,0.4,2.1,0.6,3.2,0.6c4.6,0,8.4-3.8,8.4-8.4S54,48.9,49.4,48.9z"></path> <path fill="#FFFFFF" d="M87.1,37.4l2.5-5.7h11.2l2.5,5.7h4l-9.6-22.3h-5l-9.6,22.3H87.1z M95.1,18.8h0.1l4,9.2h-8L95.1,18.8z"></path> <g> <rect x="167" y="24" fill="#FFFFFF" width="9.5" height="3.2"></rect> <g> <rect x="167.7" y="12.9" transform="matrix(0.4062 0.9138 -0.9138 0.4062 116.0203 -144.6009)" fill="#FFFFFF" width="3.2" height="8"></rect> <g> <rect x="165.2" y="32.7" transform="matrix(0.9137 0.4063 -0.4063 0.9137 28.5181 -65.8158)" fill="#FFFFFF" width="8" height="3.2"></rect> </g> </g> </g> <g> <g> <polygon fill="#FFFFFF" points="179.9,46 160.6,46 160.6,49.7 168.4,49.7 168.4,68.3 172.1,68.3 172.1,49.7 179.9,49.7 "></polygon> </g> </g> </g> </g> </svg> 