<?xml version="1.0" encoding="UTF-8"?> <svg xmlns="http://www.w3.org/2000/svg" xmlns:xlink="http://www.w3.org/1999/xlink" version="1.1" id="Layer_1" x="0px" y="0px" viewBox="0 0 195.6 195.6" xml:space="preserve"> <rect x="-1.4" y="-1.4" fill="#0074BC" width="198.4" height="198.4"></rect> <g> <g> <rect x="35.4" y="132.7" fill="#ED1C24" width="124.9" height="22"></rect> <g> <path fill="#FFFFFF" d="M47.2,139.1h2v6.1c1.4-2,2.9-4.1,4.3-6.1h2v9.1h-2v-6.1l-4.3,6.1h-2V139.1z"></path> <path fill="#FFFFFF" d="M62,146.4h1c0.8-1.5,1-3.6,1-6.2v-1.1H71v7.3h1.3l-0.3,4h-1.7v-2.2h-6.4l-0.2,2.2H62V146.4z M68.9,146.4 v-5.5h-3v1.2c0,1.7-0.3,3.2-0.8,4.3H68.9z"></path> <path fill="#FFFFFF" d="M73.4,143.7c0-2.6,1.8-4.7,4.4-4.7c2.9,0,4.4,2.3,4.4,4.9c0,0.1,0,0.5,0,0.6h-6.7 c0.2,1.5,1.3,2.3,2.6,2.3c1,0,1.7-0.4,2.5-1.1l1.2,1.1c-0.9,1-2.1,1.7-3.7,1.7C75.4,148.4,73.4,146.5,73.4,143.7z M80.1,143 c-0.1-1.3-0.9-2.4-2.3-2.4c-1.3,0-2.2,1-2.4,2.4H80.1z"></path> <path fill="#FFFFFF" d="M84.1,139.1h2v6.1c1.4-2,2.9-4.1,4.3-6.1h2v9.1h-2v-6.1l-4.3,6.1h-2V139.1z M85.6,135.7l1.3-0.2 c0.2,0.7,0.7,1.2,1.4,1.2c0.8,0,1.2-0.4,1.4-1.2l1.3,0.2c-0.2,1.5-1.2,2.4-2.7,2.4C86.8,138,85.8,137.1,85.6,135.7z"></path> <path fill="#FFFFFF" d="M94.4,143.7L94.4,143.7c0-2.6,2-4.8,4.7-4.8c1.7,0,2.8,0.6,3.6,1.6l-1.3,1.4c-0.6-0.7-1.3-1.1-2.4-1.1 c-1.5,0-2.6,1.3-2.6,2.9v0c0,1.6,1.1,2.9,2.7,2.9c1,0,1.7-0.5,2.4-1.1l1.3,1.2c-0.9,1-1.9,1.7-3.7,1.7 C96.4,148.4,94.4,146.3,94.4,143.7z"></path> <path fill="#FFFFFF" d="M106.4,140.9h-2.9v-1.8h8v1.8h-2.9v7.3h-2.1V140.9z"></path> <path fill="#FFFFFF" d="M113,139.1h4.7c1.8,0,3,0.9,3,2.3c0,1.2-0.7,1.7-1.5,2.1c1.1,0.3,1.9,1,1.9,2.3c0,1.5-1.3,2.5-3.4,2.5 H113V139.1z M117.2,142.9c0.9,0,1.4-0.5,1.4-1.1c0-0.6-0.4-1-1.3-1H115v2.2H117.2z M117.4,146.6c1,0,1.6-0.5,1.6-1.2 c0-0.7-0.5-1.1-1.7-1.1H115v2.3H117.4z"></path> <path fill="#FFFFFF" d="M122.2,150.5l0.7-1.6c0.4,0.2,0.8,0.3,1.2,0.3c0.6,0,0.9-0.3,1.3-1.1l-3.8-9.1h2.2l2.6,6.8l2.4-6.8h2.2 l-3.6,9.4c-0.7,1.9-1.5,2.6-3,2.6C123.4,151,122.8,150.8,122.2,150.5z"></path> <path fill="#FFFFFF" d="M131.6,143.7c0-2.6,1.8-4.7,4.4-4.7c2.9,0,4.4,2.3,4.4,4.9c0,0.1,0,0.5,0,0.6h-6.7 c0.2,1.5,1.3,2.3,2.6,2.3c1,0,1.7-0.4,2.5-1.1l1.2,1.1c-0.9,1-2.1,1.7-3.7,1.7C133.6,148.4,131.6,146.5,131.6,143.7z M138.3,143 c-0.1-1.3-0.9-2.4-2.3-2.4c-1.3,0-2.2,1-2.4,2.4H138.3z"></path> <path fill="#FFFFFF" d="M143.9,140.9H141v-1.8h8v1.8H146v7.3h-2.1V140.9z"></path> </g> </g> <g> <polygon fill="#FFFFFF" points="23.7,119.6 20,119.6 20,97.3 36.1,97.3 36.1,101 23.7,101 "></polygon> <polygon fill="#FFFFFF" points="155.7,119.6 152,119.6 152,103 139.1,119.6 135.2,119.6 135.2,97.3 138.9,97.3 138.9,114 151.7,97.3 155.7,97.3 "></polygon> <path fill="#FFFFFF" d="M75.9,119.6H63.1V97.3h11.5c3.4,0,6.1,2.8,6.1,6.1c0,1.3-0.4,2.6-1.2,3.6c1.9,1.2,3.1,3.3,3.1,5.7 C82.7,116.5,79.7,119.6,75.9,119.6z M66.8,115.9h9.1c1.7,0,3.2-1.4,3.2-3.2s-1.4-3.2-3.2-3.2h-9.1V115.9z M66.8,105.9h7.8 c1.4,0,2.5-1.1,2.5-2.5c0-1.4-1.1-2.5-2.5-2.5h-7.8V105.9z"></path> <path fill="#FFFFFF" d="M117.5,119.6h-3.7V97.3h11.5c4,0,7.3,3.3,7.3,7.3c0,4-3.3,7.3-7.3,7.3h-7.8V119.6z M117.5,108.2h7.8 c2,0,3.6-1.6,3.6-3.6c0-2-1.6-3.6-3.6-3.6h-7.8V108.2z"></path> <path fill="#FFFFFF" d="M66.8,88.7h-3.7V66.5h11.5c4,0,7.3,3.3,7.3,7.3S78.7,81,74.7,81h-7.8V88.7z M66.8,77.3h7.8 c2,0,3.6-1.6,3.6-3.6s-1.6-3.6-3.6-3.6h-7.8V77.3z"></path> <g> <g> <polygon fill="#FFFFFF" points="59.2,66.5 39.9,66.5 39.9,70.1 47.7,70.1 47.7,88.7 51.4,88.7 51.4,70.1 59.2,70.1 "></polygon> </g> </g> <path fill="#FFFFFF" d="M29.9,89.4c-6.5,0-11.8-5.3-11.8-11.8s5.3-11.8,11.8-11.8c2.9,0,5.6,1,7.8,2.9l-2.4,2.8 c-1.5-1.3-3.4-2-5.4-2c-4.5,0-8.2,3.7-8.2,8.2s3.7,8.2,8.2,8.2c2,0,3.9-0.7,5.4-2l2.4,2.8C35.5,88.4,32.7,89.4,29.9,89.4z"></path> <path fill="#FFFFFF" d="M134.8,88.7l2.5-5.7h11.2l2.5,5.7h4l-9.6-22.3h-5l-9.6,22.3H134.8z M142.8,70.1h0.1l4,9.2h-8L142.8,70.1z"></path> <polygon fill="#FFFFFF" points="124.3,66.5 124.3,75.9 112,75.9 112,66.5 108.3,66.5 108.3,88.7 112,88.7 112,79.6 124.3,79.6 124.3,88.7 128,88.7 128,66.5 "></polygon> <path fill="#FFFFFF" d="M85.7,121.9l1.5-8.1c-0.8-1.6-1.2-3.4-1.2-5.2c0-6.6,5.4-12,12-12c6.6,0,12,5.4,12,12c0,6.6-5.4,12-12,12 c-1.4,0-2.7-0.2-4-0.7L85.7,121.9z M98,100.2c-4.6,0-8.4,3.8-8.4,8.4c0,1.4,0.4,2.8,1,4.1l0.3,0.6l-0.7,3.9l4-1l0.5,0.2 c1,0.4,2.1,0.6,3.2,0.6c4.6,0,8.4-3.8,8.4-8.4C106.4,104,102.7,100.2,98,100.2z"></path> <path fill="#FFFFFF" d="M35.4,121.9l1.5-8.1c-0.8-1.6-1.2-3.4-1.2-5.2c0-6.6,5.4-12,12-12s12,5.4,12,12c0,6.6-5.4,12-12,12 c-1.4,0-2.7-0.2-4-0.7L35.4,121.9z M47.7,100.2c-4.6,0-8.4,3.8-8.4,8.4c0,1.4,0.4,2.8,1,4.1l0.3,0.6l-0.7,3.9l4-1l0.5,0.2 c1,0.4,2.1,0.6,3.2,0.6c4.6,0,8.4-3.8,8.4-8.4C56.1,104,52.3,100.2,47.7,100.2z"></path> <path fill="#FFFFFF" d="M85.4,88.7l2.5-5.7h11.2l2.5,5.7h4L96,66.5h-5l-9.6,22.3H85.4z M93.4,70.1h0.1l4,9.2h-8L93.4,70.1z"></path> <g> <rect x="165.3" y="75.3" fill="#FFFFFF" width="9.5" height="3.2"></rect> <g> <rect x="166" y="64.3" transform="matrix(0.4062 0.9138 -0.9138 0.4062 161.9046 -112.5854)" fill="#FFFFFF" width="3.2" height="8"></rect> <g> <rect x="163.6" y="84" transform="matrix(0.9137 0.4063 -0.4063 0.9137 49.2193 -60.703)" fill="#FFFFFF" width="8" height="3.2"></rect> </g> </g> </g> <g> <g> <polygon fill="#FFFFFF" points="178.2,97.3 158.9,97.3 158.9,101 166.7,101 166.7,119.6 170.4,119.6 170.4,101 178.2,101 "></polygon> </g> </g> </g> </g> </svg> 