<?xml version="1.0" standalone="no"?>
<!DOCTYPE svg PUBLIC "-//W3C//DTD SVG 20010904//EN"
 "http://www.w3.org/TR/2001/REC-SVG-20010904/DTD/svg10.dtd">
<svg version="1.0" xmlns="http://www.w3.org/2000/svg"
 width="144.000000pt" height="144.000000pt" viewBox="0 0 144.000000 144.000000"
 preserveAspectRatio="xMidYMid meet">
<metadata>
Created by potrace 1.14, written by Peter Selinger 2001-2017
</metadata>
<g transform="translate(0.000000,144.000000) scale(0.100000,-0.100000)"
fill="#000000" stroke="none">
<path d="M0 720 l0 -720 720 0 720 0 0 720 0 720 -720 0 -720 0 0 -720z m1260
220 c0 -4 -13 -13 -30 -19 -23 -8 -30 -7 -30 3 0 7 10 18 23 23 23 11 37 8 37
-7z m-991 1 c22 -14 4 -32 -23 -21 -55 21 -100 -47 -59 -92 13 -15 26 -19 49
-15 37 6 48 -1 33 -20 -19 -22 -73 -16 -103 12 -55 51 -19 145 56 145 18 0 39
-4 47 -9z m171 -6 c0 -10 -10 -15 -30 -15 l-30 0 0 -65 c0 -37 -4 -65 -10 -65
-6 0 -10 28 -10 65 l0 65 -30 0 c-20 0 -30 5 -30 15 0 12 14 15 70 15 56 0 70
-3 70 -15z m141 5 c13 -7 19 -21 19 -45 0 -40 -20 -55 -74 -55 -32 0 -36 -3
-36 -25 0 -14 -4 -25 -10 -25 -6 0 -10 33 -10 80 l0 80 46 0 c25 0 54 -5 65
-10z m158 -61 c17 -40 31 -76 31 -80 0 -18 -29 -8 -35 11 -5 15 -15 20 -45 20
-29 0 -42 -5 -50 -20 -6 -11 -17 -20 -25 -20 -12 0 -10 9 6 48 11 26 27 62 34
80 23 54 47 43 84 -39z m81 36 c0 -35 0 -35 45 -35 45 0 45 0 45 35 0 24 5 35
15 35 12 0 15 -16 15 -80 0 -64 -3 -80 -15 -80 -10 0 -15 10 -15 30 0 29 -2
30 -45 30 -43 0 -45 -1 -45 -30 0 -16 -4 -30 -10 -30 -6 0 -10 33 -10 80 0 47
4 80 10 80 6 0 10 -16 10 -35z m279 -36 c17 -40 31 -76 31 -80 0 -18 -29 -8
-35 11 -5 15 -15 20 -45 20 -29 0 -42 -5 -50 -20 -6 -11 -17 -20 -25 -20 -12
0 -10 9 6 48 11 26 27 62 34 80 23 54 47 43 84 -39z m181 -9 c0 -5 -16 -10
-35 -10 -19 0 -35 5 -35 10 0 6 16 10 35 10 19 0 35 -4 35 -10z m-26 -61 c17
-15 -3 -23 -29 -11 -32 15 -34 36 -2 27 12 -4 26 -11 31 -16z m-840 -104 c19
-18 26 -34 26 -63 0 -57 -32 -83 -109 -88 l-61 -3 0 65 c0 57 3 68 26 89 17
16 39 25 59 25 20 0 42 -9 59 -25z m367 -4 c36 -36 38 -79 6 -117 -19 -22 -33
-27 -80 -30 -32 -2 -61 -5 -65 -8 -5 -3 -8 27 -6 67 1 63 5 74 28 94 38 32 81
30 117 -6z m-511 10 c0 -6 -19 -11 -42 -13 l-43 -3 -3 -67 c-2 -52 -6 -68 -17
-68 -12 0 -15 17 -15 80 l0 80 60 0 c33 0 60 -4 60 -9z m320 -10 c5 -11 7 -26
4 -34 -3 -8 -1 -18 5 -22 16 -9 13 -51 -5 -69 -10 -11 -34 -16 -70 -16 l-54 0
0 80 0 80 55 0 c43 0 56 -4 65 -19z m368 7 c16 -16 15 -63 -1 -76 -7 -6 -30
-12 -52 -14 -35 -3 -40 -6 -43 -30 -2 -16 -8 -28 -13 -28 -5 0 -9 36 -9 80 l0
80 53 0 c29 0 58 -5 65 -12z m62 -45 l0 -57 43 57 c23 31 50 56 60 57 15 0 17
-10 17 -80 0 -64 -3 -80 -15 -80 -12 0 -15 13 -15 57 l0 57 -42 -57 c-24 -31
-51 -56 -60 -57 -16 0 -18 10 -18 80 0 64 3 80 15 80 12 0 15 -13 15 -57z
m290 47 c0 -5 -13 -10 -30 -10 l-30 0 0 -70 c0 -56 -3 -70 -15 -70 -12 0 -15
14 -15 70 l0 70 -30 0 c-16 0 -30 5 -30 10 0 6 32 10 75 10 43 0 75 -4 75 -10z
m-640 -272 c0 -4 -9 -8 -20 -8 -11 0 -20 4 -20 8 0 4 9 8 20 8 11 0 20 -4 20
-8z m-300 -35 c1 -17 1 -17 14 0 20 26 26 21 25 -20 -1 -33 -2 -35 -8 -13 l-7
25 -12 -22 c-18 -33 -32 -28 -32 12 0 35 20 51 20 18z m160 -20 c0 -37 -1 -38
-36 -38 -30 0 -34 3 -30 20 3 11 6 28 6 38 0 12 8 17 30 17 28 0 30 -2 30 -37z
m70 33 c0 -2 3 -11 6 -20 5 -12 -1 -16 -22 -17 -24 -1 -25 -2 -6 -6 27 -5 30
-23 3 -23 -26 0 -44 25 -36 50 4 13 15 20 31 20 13 0 24 -2 24 -4z m40 -13 c1
-17 1 -17 11 0 17 28 29 19 28 -20 -1 -21 -3 -30 -6 -20 -6 21 -19 22 -27 2
-10 -27 -26 -15 -26 20 0 19 5 35 10 35 6 0 10 -8 10 -17z m110 7 c0 -5 -9
-10 -20 -10 -31 0 -24 -28 8 -32 22 -4 24 -6 10 -12 -27 -12 -48 0 -48 27 0
13 3 27 7 30 10 11 43 8 43 -3z m63 3 c-7 -2 -13 -18 -13 -34 0 -16 -4 -29
-10 -29 -5 0 -10 13 -10 29 0 16 -6 32 -12 34 -7 3 3 5 22 5 19 0 29 -2 23 -5z
m107 -17 c9 -21 9 -21 16 2 3 12 10 22 15 22 12 0 12 -3 -7 -50 -14 -36 -44
-56 -44 -30 0 6 4 10 9 10 6 0 6 12 -1 31 -11 32 -23 30 -23 -4 0 -17 -7 -23
-27 -25 -26 -3 -28 -1 -28 32 0 36 0 36 41 34 31 -1 43 -6 49 -22z m162 12
c-7 -7 -13 -23 -13 -37 -1 -25 -2 -25 -8 3 -6 31 -31 48 -31 22 0 -10 -10 -16
-27 -17 l-28 -1 30 -8 c25 -6 27 -8 13 -14 -27 -12 -48 0 -48 27 0 33 4 35 67
36 43 0 53 -3 45 -11z"/>
<path d="M490 895 c0 -22 4 -25 39 -25 22 0 41 5 43 13 10 25 -4 37 -43 37
-35 0 -39 -3 -39 -25z"/>
<path d="M677 896 c-12 -31 -8 -46 13 -46 23 0 26 18 7 44 -13 18 -14 18 -20
2z"/>
<path d="M1033 887 c-13 -28 -8 -37 19 -37 21 0 23 19 5 44 -12 17 -14 16 -24
-7z"/>
<path d="M324 692 c-20 -13 -30 -42 -26 -76 4 -31 6 -33 40 -31 51 3 50 2 67
29 14 20 14 29 4 48 -15 28 -28 38 -54 38 -11 0 -25 -4 -31 -8z"/>
<path d="M675 676 c-11 -16 -14 -35 -10 -58 5 -28 11 -33 38 -35 44 -3 77 21
77 56 0 58 -75 84 -105 37z"/>
<path d="M495 690 c-4 -7 -3 -16 3 -22 14 -14 57 -6 57 12 0 18 -50 26 -60 10z"/>
<path d="M490 609 c0 -18 5 -20 42 -17 31 2 44 8 46 21 3 14 -4 17 -42 17 -40
0 -46 -3 -46 -21z"/>
<path d="M864 685 c-14 -36 17 -56 60 -39 21 8 21 40 0 48 -27 11 -54 7 -60
-9z"/>
<path d="M490 391 c0 -12 5 -21 10 -21 6 0 10 6 10 14 0 8 -4 18 -10 21 -5 3
-10 -3 -10 -14z"/>
<path d="M565 400 c-3 -5 1 -10 10 -10 9 0 13 5 10 10 -3 6 -8 10 -10 10 -2 0
-7 -4 -10 -10z"/>
<path d="M850 369 c0 -5 5 -7 10 -4 6 3 10 8 10 11 0 2 -4 4 -10 4 -5 0 -10
-5 -10 -11z"/>
<path d="M990 400 c0 -5 5 -10 10 -10 6 0 10 5 10 10 0 6 -4 10 -10 10 -5 0
-10 -4 -10 -10z"/>
</g>
</svg>
